<mxfile host="app.diagrams.net" modified="2023-10-23T11:35:50.954Z" agent="Mozilla/5.0 (Windows NT 10.0; Win64; x64) AppleWebKit/537.36 (KHTML, like Gecko) Chrome/118.0.0.0 Safari/537.36" etag="diz7JBJQz5GZn46-xAcL" version="22.0.6" type="github">
  <diagram name="第 1 页" id="oUJZ_7-wf6Z52sc25u2u">
    <mxGraphModel dx="1221" dy="745" grid="1" gridSize="10" guides="1" tooltips="1" connect="1" arrows="1" fold="1" page="1" pageScale="1" pageWidth="827" pageHeight="1169" math="0" shadow="0">
      <root>
        <mxCell id="0" />
        <mxCell id="1" parent="0" />
        <mxCell id="uQCAdebcJ9pvAyVTMmP9-8" style="edgeStyle=orthogonalEdgeStyle;rounded=0;orthogonalLoop=1;jettySize=auto;html=1;exitX=0.5;exitY=1;exitDx=0;exitDy=0;entryX=0.5;entryY=0;entryDx=0;entryDy=0;" edge="1" parent="1" source="uQCAdebcJ9pvAyVTMmP9-1" target="uQCAdebcJ9pvAyVTMmP9-2">
          <mxGeometry relative="1" as="geometry" />
        </mxCell>
        <mxCell id="uQCAdebcJ9pvAyVTMmP9-1" value="Image" style="ellipse;whiteSpace=wrap;html=1;" vertex="1" parent="1">
          <mxGeometry x="80" y="120" width="120" height="80" as="geometry" />
        </mxCell>
        <mxCell id="uQCAdebcJ9pvAyVTMmP9-9" style="edgeStyle=orthogonalEdgeStyle;rounded=0;orthogonalLoop=1;jettySize=auto;html=1;exitX=0.5;exitY=1;exitDx=0;exitDy=0;entryX=0.5;entryY=0;entryDx=0;entryDy=0;" edge="1" parent="1" source="uQCAdebcJ9pvAyVTMmP9-2" target="uQCAdebcJ9pvAyVTMmP9-3">
          <mxGeometry relative="1" as="geometry" />
        </mxCell>
        <mxCell id="uQCAdebcJ9pvAyVTMmP9-2" value="Conv" style="rounded=1;whiteSpace=wrap;html=1;" vertex="1" parent="1">
          <mxGeometry x="80" y="240" width="120" height="60" as="geometry" />
        </mxCell>
        <mxCell id="uQCAdebcJ9pvAyVTMmP9-10" style="edgeStyle=orthogonalEdgeStyle;rounded=0;orthogonalLoop=1;jettySize=auto;html=1;entryX=0.5;entryY=0;entryDx=0;entryDy=0;" edge="1" parent="1" source="uQCAdebcJ9pvAyVTMmP9-3" target="uQCAdebcJ9pvAyVTMmP9-4">
          <mxGeometry relative="1" as="geometry" />
        </mxCell>
        <mxCell id="uQCAdebcJ9pvAyVTMmP9-3" value="Position&lt;br&gt;Embedding" style="rounded=1;whiteSpace=wrap;html=1;" vertex="1" parent="1">
          <mxGeometry x="80" y="360" width="120" height="60" as="geometry" />
        </mxCell>
        <mxCell id="uQCAdebcJ9pvAyVTMmP9-11" style="edgeStyle=orthogonalEdgeStyle;rounded=0;orthogonalLoop=1;jettySize=auto;html=1;entryX=0.5;entryY=0;entryDx=0;entryDy=0;" edge="1" parent="1" source="uQCAdebcJ9pvAyVTMmP9-4" target="uQCAdebcJ9pvAyVTMmP9-5">
          <mxGeometry relative="1" as="geometry" />
        </mxCell>
        <mxCell id="uQCAdebcJ9pvAyVTMmP9-4" value="Layer Normal" style="rounded=1;whiteSpace=wrap;html=1;" vertex="1" parent="1">
          <mxGeometry x="80" y="480" width="120" height="60" as="geometry" />
        </mxCell>
        <mxCell id="uQCAdebcJ9pvAyVTMmP9-12" style="edgeStyle=orthogonalEdgeStyle;rounded=0;orthogonalLoop=1;jettySize=auto;html=1;entryX=0.5;entryY=0;entryDx=0;entryDy=0;" edge="1" parent="1" source="uQCAdebcJ9pvAyVTMmP9-5" target="uQCAdebcJ9pvAyVTMmP9-6">
          <mxGeometry relative="1" as="geometry" />
        </mxCell>
        <mxCell id="uQCAdebcJ9pvAyVTMmP9-5" value="Transformer" style="rounded=1;whiteSpace=wrap;html=1;" vertex="1" parent="1">
          <mxGeometry x="80" y="600" width="120" height="60" as="geometry" />
        </mxCell>
        <mxCell id="uQCAdebcJ9pvAyVTMmP9-13" style="edgeStyle=orthogonalEdgeStyle;rounded=0;orthogonalLoop=1;jettySize=auto;html=1;entryX=0.5;entryY=0;entryDx=0;entryDy=0;" edge="1" parent="1" source="uQCAdebcJ9pvAyVTMmP9-6" target="uQCAdebcJ9pvAyVTMmP9-7">
          <mxGeometry relative="1" as="geometry" />
        </mxCell>
        <mxCell id="uQCAdebcJ9pvAyVTMmP9-6" value="Projection" style="rounded=1;whiteSpace=wrap;html=1;" vertex="1" parent="1">
          <mxGeometry x="80" y="720" width="120" height="60" as="geometry" />
        </mxCell>
        <mxCell id="uQCAdebcJ9pvAyVTMmP9-7" value="I" style="ellipse;whiteSpace=wrap;html=1;" vertex="1" parent="1">
          <mxGeometry x="80" y="840" width="120" height="80" as="geometry" />
        </mxCell>
        <mxCell id="uQCAdebcJ9pvAyVTMmP9-15" style="edgeStyle=orthogonalEdgeStyle;rounded=0;orthogonalLoop=1;jettySize=auto;html=1;entryX=1;entryY=0.5;entryDx=0;entryDy=0;" edge="1" parent="1" source="uQCAdebcJ9pvAyVTMmP9-14" target="uQCAdebcJ9pvAyVTMmP9-5">
          <mxGeometry relative="1" as="geometry" />
        </mxCell>
        <mxCell id="uQCAdebcJ9pvAyVTMmP9-16" value="Replace" style="edgeLabel;html=1;align=center;verticalAlign=middle;resizable=0;points=[];" vertex="1" connectable="0" parent="uQCAdebcJ9pvAyVTMmP9-15">
          <mxGeometry x="0.175" y="-1" relative="1" as="geometry">
            <mxPoint x="7" as="offset" />
          </mxGeometry>
        </mxCell>
        <mxCell id="uQCAdebcJ9pvAyVTMmP9-25" style="edgeStyle=orthogonalEdgeStyle;rounded=0;orthogonalLoop=1;jettySize=auto;html=1;exitX=1;exitY=0.5;exitDx=0;exitDy=0;entryX=0;entryY=0.5;entryDx=0;entryDy=0;dashed=1;dashPattern=12 12;" edge="1" parent="1" source="uQCAdebcJ9pvAyVTMmP9-14" target="uQCAdebcJ9pvAyVTMmP9-22">
          <mxGeometry relative="1" as="geometry" />
        </mxCell>
        <mxCell id="uQCAdebcJ9pvAyVTMmP9-14" value="LoRA&lt;br&gt;Transformer" style="rounded=1;whiteSpace=wrap;html=1;" vertex="1" parent="1">
          <mxGeometry x="280" y="600" width="120" height="60" as="geometry" />
        </mxCell>
        <mxCell id="uQCAdebcJ9pvAyVTMmP9-22" value="" style="rounded=0;whiteSpace=wrap;html=1;fillColor=none;dashed=1;dashPattern=12 12;" vertex="1" parent="1">
          <mxGeometry x="470" y="440" width="250" height="380" as="geometry" />
        </mxCell>
        <mxCell id="uQCAdebcJ9pvAyVTMmP9-31" style="edgeStyle=orthogonalEdgeStyle;rounded=0;orthogonalLoop=1;jettySize=auto;html=1;entryX=0.5;entryY=0;entryDx=0;entryDy=0;" edge="1" parent="1" source="uQCAdebcJ9pvAyVTMmP9-27" target="uQCAdebcJ9pvAyVTMmP9-29">
          <mxGeometry relative="1" as="geometry" />
        </mxCell>
        <mxCell id="uQCAdebcJ9pvAyVTMmP9-27" value="LoRA Residual&lt;br&gt;Attention Block" style="rounded=1;whiteSpace=wrap;html=1;" vertex="1" parent="1">
          <mxGeometry x="535" y="600" width="120" height="60" as="geometry" />
        </mxCell>
        <mxCell id="uQCAdebcJ9pvAyVTMmP9-30" style="edgeStyle=orthogonalEdgeStyle;rounded=0;orthogonalLoop=1;jettySize=auto;html=1;exitX=0.5;exitY=1;exitDx=0;exitDy=0;entryX=0.5;entryY=0;entryDx=0;entryDy=0;" edge="1" parent="1" source="uQCAdebcJ9pvAyVTMmP9-28" target="uQCAdebcJ9pvAyVTMmP9-27">
          <mxGeometry relative="1" as="geometry" />
        </mxCell>
        <mxCell id="uQCAdebcJ9pvAyVTMmP9-28" value="Input" style="ellipse;whiteSpace=wrap;html=1;" vertex="1" parent="1">
          <mxGeometry x="535" y="470" width="120" height="80" as="geometry" />
        </mxCell>
        <mxCell id="uQCAdebcJ9pvAyVTMmP9-29" value="Output" style="ellipse;whiteSpace=wrap;html=1;" vertex="1" parent="1">
          <mxGeometry x="535" y="710" width="120" height="80" as="geometry" />
        </mxCell>
        <mxCell id="uQCAdebcJ9pvAyVTMmP9-32" value="&lt;b style=&quot;color: rgb(32, 33, 34); font-family: sans-serif; font-size: 15.008px; text-align: start; background-color: rgb(255, 255, 255);&quot;&gt;×&lt;/b&gt;N" style="text;html=1;strokeColor=none;fillColor=none;align=center;verticalAlign=middle;whiteSpace=wrap;rounded=0;" vertex="1" parent="1">
          <mxGeometry x="655" y="615" width="60" height="30" as="geometry" />
        </mxCell>
      </root>
    </mxGraphModel>
  </diagram>
</mxfile>
